/* XPM */
static char *_484f32402d74c3593a79a99a24de6c9oZuMlH5eDSMdI7Z5[] = {
/* columns rows colors chars-per-pixel */
"112 112 15 1 ",
"  c None",
". c black",
"X c gray25",
"o c #F86038",
"O c #C03858",
"+ c #984048",
"@ c #C86868",
"# c #F8A050",
"$ c #F8E840",
"% c #3870B8",
"& c #5898A0",
"* c #E0B898",
"= c #C0C0C0",
"- c #F8E0C0",
"; c #F8F8F8",
/* pixels */
"                                                                                                                ",
"                                                                                                                ",
"                                                                                                                ",
"                                                                                                                ",
"                                                                                                                ",
"                                                                                                                ",
"                                                                                                                ",
"                                                                                                                ",
"                                                                                                                ",
"                                                                                                                ",
"                                                                                                                ",
"                                                                                                                ",
"                                                                                                                ",
"                                                                                                                ",
"                                                                                                                ",
"                                                                                                                ",
"                                                                                                                ",
"                                                                                                                ",
"                                                                                                                ",
"                                                                                                                ",
"                                                                                                                ",
"                                                                                                                ",
"                                                                                                                ",
"                                                                                                                ",
"                                                                                                                ",
"                                                                                                                ",
"                                                                                                                ",
"                                                                                                                ",
"                                                                                                                ",
"                                                                                                                ",
"                                                                                      ..                        ",
"                                                                                      ..                        ",
"                                                                                    ..oo..                      ",
"                                                                                    ..oo..                      ",
"                                                                                    ..oooo..                    ",
"                                                                                    ..oooo..                    ",
"                                                                                  ..oooooo..                    ",
"                                                                                  ..oooooo..                    ",
"                                                                                ..oooooo..                      ",
"                                                                                ..oooooo..                      ",
"                                                                                ..oo##oo..  ..                  ",
"                                                                                ..oo##oo..  ..                  ",
"                        ..          ....                                      ..oooo$$oooo..##..                ",
"                        ..          ....                                      ..oooo$$oooo..##..                ",
"                      ..@@..      ..++++....                                  ..oo$$##oooooo$$..                ",
"                      ..@@..      ..++++....                                  ..oo$$##oooooo$$..                ",
"                      ..@@..        ..++++++..      ......                    ..##$$##oooo##$$..                ",
"                      ..@@..        ..++++++..      ......                    ..##$$##oooo##$$..                ",
"                    ..@@@@..      ..##XX++++++..  ..####@@..                  ..$$$$$$##$$$$..                  ",
"                    ..@@@@..      ..##XX++++++..  ..####@@..                  ..$$$$$$##$$$$..                  ",
"                    ..@@..      ..####XX++++++++..  ..######..                  ..$$$$$$$$$$..                  ",
"                    ..@@..      ..####XX++++++++..  ..######..                  ..$$$$$$$$$$..                  ",
"                  ..@@@@....  ..####XX..++++++++..    ..++####........          ..$$$$$$$$..                    ",
"                  ..@@@@....  ..####XX..++++++++..    ..++####........          ..$$$$$$$$..                    ",
"                  ..@@######..####@@..  ..++++++++..    ..@@####@@@@##......      ..##$$##..                    ",
"                  ..@@######..####@@..  ..++++++++..    ..@@####@@@@##......      ..##$$##..                    ",
"                ..################..      ..++++++++..  ..@@XXXX####@@######..      ..##..                      ",
"                ..################..      ..++++++++..  ..@@XXXX####@@######..      ..##..                      ",
"              ..####################....  ..++++++..++..@@@@XX%%XXXX##@@######..    ..@@..                      ",
"              ..####################....  ..++++++..++..@@@@XX%%XXXX##@@######..    ..@@..                      ",
"            ..######################@@@@..XX++++..  ..@@@@XX%%%%&&&&XX##@@######..  ..@@@@..                    ",
"            ..######################@@@@..XX++++..  ..@@@@XX%%%%&&&&XX##@@######..  ..@@@@..                    ",
"            ..############@@@@######@@@@@@@@XX++..  ..@@XX%%%%%%%%&&&&XX@@@@####..    ..@@..                    ",
"            ..############@@@@######@@@@@@@@XX++..  ..@@XX%%%%%%%%&&&&XX@@@@####..    ..@@..                    ",
"              ..########++;;######@@@@@@@@@@@@XX++..@@@@XX%%%%%%%%%%......##@@####..  ..@@..                    ",
"              ..########++;;######@@@@@@@@@@@@XX++..@@@@XX%%%%%%%%%%......##@@####..  ..@@..                    ",
"              ..##@@##++..;;;;@@@@@@XX@@@@@@@@##XXXX@@XX%%%%%%......      ..##@@##..  ..@@@@..                  ",
"              ..##@@##++..;;;;@@@@@@XX@@@@@@@@##XXXX@@XX%%%%%%......      ..##@@##..  ..@@@@..                  ",
"            ..####@@##..&&;;@@@@@@@@....@@@@@@@@####XXXXXX%%..              ..@@####..XX@@@@..                  ",
"            ..####@@##..&&;;@@@@@@@@....@@@@@@@@####XXXXXX%%..              ..@@####..XX@@@@..                  ",
"          ..########@@++##@@@@@@@@..    ..@@@@@@##########..                ..##@@##XXXX@@@@@@..                ",
"          ..########@@++##@@@@@@@@..    ..@@@@@@##########..                ..##@@##XXXX@@@@@@..                ",
"        ..##############@@@@XXXX@@XX....++XX@@@@@@##########....              ..##@@XX@@@@@@@@..                ",
"        ..##############@@@@XXXX@@XX....++XX@@@@@@##########....              ..##@@XX@@@@@@@@..                ",
"        ..####++######@@XXXXOO++@@XX++++++XX@@@@@@####XX######XX..              ..##@@XX@@@@@@..                ",
"        ..####++######@@XXXXOO++@@XX++++++XX@@@@@@####XX######XX..              ..##@@XX@@@@@@..                ",
"          ..@@@@##@@....XXOO++@@XX++++..XX@@++++########XXXX######..            ....##@@XX@@@@..                ",
"          ..@@@@##@@....XXOO++@@XX++++..XX@@++++########XXXX######..            ....##@@XX@@@@..                ",
"            ........;;..OOOO++@@XX++..  ..++----++++########XX####XX..        ..@@@@XX##XX@@..                  ",
"            ........;;..OOOO++@@XX++..  ..++----++++########XX####XX..        ..@@@@XX##XX@@..                  ",
"                    ..;;OO++@@XX++..    ..----------++######XX####XX@@........++@@@@@@XX@@@@..                  ",
"                    ..;;OO++@@XX++..    ..----------++######XX####XX@@........++@@@@@@XX@@@@..                  ",
"                    ..XX@@;;..++==..    ..------------++XXXX####XX@@@@@@XX++++++++@@++@@@@..                    ",
"                    ..XX@@;;..++==..    ..------------++XXXX####XX@@@@@@XX++++++++@@++@@@@..                    ",
"                      ......  ....    ..@@XX----------XX@@++####XX##@@@@XX++++++@@++@@++..                      ",
"                      ......  ....    ..@@XX----------XX@@++####XX##@@@@XX++++++@@++@@++..                      ",
"                                    ..@@@@XX----------XX++##@@##XX####@@@@XX++++++@@**..                        ",
"                                    ..@@@@XX----------XX++##@@##XX####@@@@XX++++++@@**..                        ",
"                                    ..@@@@@@XX**----****XX;;XX;;XX######@@XX******....                          ",
"                                    ..@@@@@@XX**----****XX;;XX;;XX######@@XX******....                          ",
"                                    ..@@@@@@@@XX**********XX##XX######@@@@XX......                              ",
"                                    ..@@@@@@@@XX**********XX##XX######@@@@XX......                              ",
"                                      ..@@@@@@@@XXXX******XX##########@@@@..                                    ",
"                                      ..@@@@@@@@XXXX******XX##########@@@@..                                    ",
"                                        ..++@@@@@@@@XX......@@####++@@@@..                                      ",
"                                        ..++@@@@@@@@XX......@@####++@@@@..                                      ",
"                                      ..@@@@++++++....    ..@@@@@@@@@@@@..                                      ",
"                                      ..@@@@++++++....    ..@@@@@@@@@@@@..                                      ",
"                                    ..;;XX;;@@@@..          ..@@@@@@@@@@@@..                                    ",
"                                    ..;;XX;;@@@@..          ..@@@@@@@@@@@@..                                    ",
"                                      ..........              ..@@@@@@@@@@..                                    ",
"                                      ..........              ..@@@@@@@@@@..                                    ",
"                                                            ..;;++++@@@@..                                      ",
"                                                            ..;;++++@@@@..                                      ",
"                                                              ..XX;;XX;;..                                      ",
"                                                              ..XX;;XX;;..                                      ",
"                                                                ........                                        ",
"                                                                ........                                        ",
"                                                                                                                ",
"                                                                                                                ",
"                                                                                                                ",
"                                                                                                                "
};
