/* XPM */
static char *ce47d01330cf4cf2846ef264ecd56cdaw6pFBUu08ec9dXy1[] = {
/* columns rows colors chars-per-pixel */
"56 56 4 1 ",
"  c black",
". c #555555",
"X c #AAAAAA",
"o c white",
/* pixels */
"oooooo  oooooooooooo.  ooooooooooooooooooooooooooooooooo",
"ooooo.oo oooooooooo.ooo oooooooooooooooooooooooooooooooo",
"ooooo ooo ooooooooo oooX ooooooooooooooooooooooooooooooo",
"ooooo oooo oo.  .o oooXX ooooooooooooooooooooooooooooooo",
"ooooo ooXX . ooo   oooXX.ooooooooooooooooooooooooooooooo",
"ooooo ooXXXooooooo.ooXX.oooooooooooooooooooooooooooooooo",
"ooooo.oXXXXoooooX oooXX oooooooooooooooooooooooooooooooo",
"oooo.ooXXXoooooXX.oooXX.oooooooooooooooooooooooooooooooo",
"oooo oooXooooooX.ooooXXX ooooooooooooooooooooooooooooooo",
"oooXoooooooooooooooooXXX.ooooooooooooooooooooooooooooooo",
"ooo.oooooooooooooooooXXX. .oooooooooooooooooX.  oooooooo",
"oo ooooooooooooooooooXXX.XX  oooooooooooooX.oooo  oooooo",
"o oooooooooooooooooooXXXX.XXX ooooooooooo.oooooooo  oooo",
".ooooooooXXooooooooooXXXX.XXo  ooooooooo.oooooooooXX ooo",
" oooooooXooooo..XoooXXXXX.Xooo  ooooooo.ooooooo  XXXX oo",
" ooooooXoooo. .XXXXXXXXXX  oooo ooooooo oooooo oo XXX oo",
"  ooooo.ooo Xo.XXXXXXXXXX o oooo.ooooo.oooooo.oooo XXX o",
". oXoo.ooX  oooXXoXXXXXX ooo ooo ooooo oooooo ooooo XX o",
"o o.ooXoX . oooXoooXXXXX ooo ooXX oooo oooooo ooooo XX o",
"o..XoooX. . oo.oooXXXXXX oo   XXX ooo.ooooooo oooooo.XX ",
"oo oooXX o oX.ooooXXXXX.X  XX     ooo oooooooo ooooo XX ",
"oo oooXX XoXoooooXXXXXX.XXXXXXoooX oo oooooooo.ooooo XX ",
"oo ooooXoooooooXX   .XXX.XXXXoooo   o ooooooooX oooo XX ",
"oo.oooooooo .oX  o    XXXXX.Xoooo oo o oooooooX.oooo.XX ",
"ooo.ooooo. oo  oo .o X oXX..XXXo ooo.o ooooooXoX oo XX. ",
"oooo  o. oo  Xoo.o o o.ooo.XXXXo oooo  oooooooXX.oo.XX. ",
"oooooo    .ooooo.o o oo.ooooXXoo oooo  ooooooXoX.o XXX. ",
"oooooooooooooo.ooX oooooooXXooooX ooX o ooooXoXX. XXXX.o",
"oooooooooooooo oXX  oooX  .XXooX  ooX o oooooXoXX XXX. o",
"ooooooooooooo.oXX  o XX.XXX .XX  o ooX  ooXoXoXXX XXX. o",
"ooooooooooooo oX oooo  oooXXX  X   ooX  oXoXoXXXX.XX. oo",
"ooooooooooooo XX ooooo oooooXXXXX   oo X  XoXXXXXX .. oo",
"oooooooooooo.XX oooooo.ooooooXXXXX.X oX XX XXXXXXX   ooo",
"oooooooooooo .X ooooo.ooooooooXXX.XX ooX XX XXXXXX ooooo",
"ooooooooooo.XX oooooo oo..XooooXX.oXX oX XXo XXXXX ooooo",
"ooooooooooo XX oooooo oXXXX.oooX.oooX .X XXo.XXXXX ooooo",
"oooooooooo.ooXXooooo. .XXXXX.ooo.oooX oX XXoo XXXX ooooo",
"oooooooooo.ooXX oooo o.ooXXX..oo.ooXX.ooo.ooo.XXXX ooooo",
"oooooooooo oooX ooo.oo ooXXX..oo.ooX oooo oooo XX. ooooo",
"oooooooooo oooX ooo.oo XXXX....o.XXX.oooX oooo XX. ooooo",
"oooooooooo oooX   o ooo.XXX.X..XX.X oooXX oooX XX. ooooo",
"oooooooooo ooo ooo  ooo XX.X.X..X...oooXX ooXX X..oooooo",
"oooooooooo.ooo ooX o ooo .X.X....X ooooX.XXXXX .. oooooo",
"ooooooooooo.oo oXX o oooX ....    .oooXX XXXX.... oooooo",
"ooooooooooo ooX   X o oXoX .. oXX ooooXX XXXX .. ooooooo",
"ooooooooooo ..XXXXX oo oXXX.  XX.ooooXXX XXX.... ooooooo",
"ooooooooooo  o.XXX.. oo XXXXXo .oooooXX XXXX .. oooooooo",
"ooooooooooo.ooo X.ooo ooo XX o  ooooXXX oXXXX  ooooooooo",
"ooooooooooo.ooX  .ooo ooo  ..  .oooXXX . oXXXo ooooooooo",
"oooooooooooo XX   XX  oo  ... oX.oXXXX . oooooo. ooooooo",
"ooooooooooooo.  .       oXX.. XXX ..X .. oooooooo. ooooo",
"oooooooooooooooo  ....ooooXX..    oX ..  o.. oooooo oooo",
"ooooooooooooooo oo.oooooooXXXX...   o  o .ooX oooooo ooo",
"ooooooooooooooo oo oooooXXXX.    oooooooo ooX XXoooX ooo",
"oooooooooooooooo   XXXX.    ooooooooooooo XXX   XXX oooo",
"ooooooooooooooooooo    ooooooooooooooooooo   ooo   ooooo"
};
