/* XPM */
static char *_ab9b8bcf01e4b68c92021530dd7cdb0Ufr6JThCSmgUHhp4[] = {
/* columns rows colors chars-per-pixel */
"56 56 4 1 ",
"  c white",
". c #A57BAD",
"X c #42AD73",
"o c black",
/* pixels */
"   ooo                           oooo                   ",
"  o  .oo   oooooo               o  ..ooo                ",
" o   o..o o.   ..oo             o  .....oo              ",
"o  .o....o.  ......ooooooo       oo.......oo            ",
"o.........o.o..ooo..  ....o        o..ooo...o           ",
"o.o...oo...o.ooo  ........o        o..oXXoo..o          ",
" o ooo  o.....o o ....oooo          o.oXXXXo..o         ",
" o o o ooo.....oo ..oo              o.oXXXXXo..o        ",
"  o o.ooooo..........o              o.oXXXXXXo..o       ",
"   o..XXooooo........o              o.oXXXXXXXo..o      ",
"   o.XXXoooooo.......o              o.oXXXXXXXXo.o      ",
"  o..Xoo...ooo...o..o              o..oXXXXXXXXo..o     ",
"  o.Xo  ....o....o..o              o..oXXXXXXXXXo.o     ",
" o..o. ...ooo..oo...o              o.oXXXXXXXXXXo..o    ",
" o.Xo....ooo..o......o            o..oooXXXXXXXXXo.o    ",
" o.XXo..oooo.o.......o           ooo.oXooXXXXXXXXo..o   ",
"o..XXXooooo..o.......o          o  .oXXXooXXXXXXXXo.o   ",
"o.XXXo.oo..ooXo.......o         o  ooooXXoXXXXXXXXo.o   ",
"o.XXXXo...oXXXo.......o        oooXo  .oXooXXXXXXXo.o   ",
"o.XXXXXoooXXXoXo.......o      o  ..o  .oXXoXXXXXXXo..o  ",
"o..XXXoooooXoXoo.......o      o  ...o...oXooXXXXXXXo.o  ",
" o.Xoo     oXoXo........o   ooooo.......oXXoXXXXXXXo.o  ",
" o.o        oXoXo........o o....o.......oXXoXXXXXXXo.o  ",
"  o          oXoo.........o.....oo.....oXXXXXXXXXXXo.o  ",
"   oo oo     ooXo..........o.oooXXoo..oXXXXoooXXXXXo.o  ",
"  o  o  o     ooo...........o..ooo....ooXXo.  ooXXXo.o  ",
" o  oo  o     ooo....................o..oo....  oXXo.o  ",
" o o..oo.o   oo.o....................o.........  oo.o   ",
"  o......o oo..o.................oooo .... .....  o.o   ",
" o o......oo...o...............oo    ....  .....   o    ",
" o  oooo..o....o    ........ooo.o  ......    ...        ",
"  oo   o......o       ..........o   .....     ...       ",
"        o..oooo         ........o    .....    ...       ",
"         oo  o           ........o   ......  ....       ",
"             o            .......o    ............      ",
"            o             ........o   ............      ",
"            o              .......o     ........o       ",
"            o              ........o       ...o..o      ",
"           oo               ........o          o..o     ",
"          o.o               .........o         o..o     ",
"         o..o                o........o        o...o    ",
"        o...o               o..........o      o....o    ",
"        o ..o              o..   ......o    oo. ...o    ",
"       o   .o              o.     ......oooo . ....o    ",
"       o   ..o            o..     ......o.. . . .. o    ",
"       o  ...o            o...   ........o........ o    ",
"       o......o           o..............o....... o     ",
"        o.....o           o..............o......  o     ",
"        o......o        . .o.............o.....  o      ",
"         o......o  . . . . o............o....   o       ",
"       oo.oo...o.oo . . . . o...........o     oo        ",
"      o.....oo.....ooo . . oooooo.oo...o    oo          ",
"     o  oo......ooo   ooooo  oo.......oo ooo            ",
"     ooo  o   oo             o  ...  .  o               ",
"        oo ooo               o  ooo  oo o               ",
"                              oo   oo  oo               "
};
